<?xml version="1.0" encoding="UTF-8" standalone="no"?>
<svg width="81px" height="82px" viewBox="0 0 81 82" version="1.1" xmlns="http://www.w3.org/2000/svg" xmlns:xlink="http://www.w3.org/1999/xlink" xmlns:sketch="http://www.bohemiancoding.com/sketch/ns">
    <!-- Generator: Sketch 3.2.2 (9983) - http://www.bohemiancoding.com/sketch -->
    <title>qo 2</title>
    <desc>Created with Sketch.</desc>
    <defs></defs>
    <g id="Page-1" stroke="none" stroke-width="1" fill="none" fill-rule="evenodd" sketch:type="MSPage">
        <rect id="Rectangle-1" fill-opacity="0.881199049" fill="#507AD3" sketch:type="MSShapeGroup" x="0" y="0" width="81" height="82" rx="22"></rect>
        <path d="M38,55 C31.7721262,55 36.6614495,45.73408 36.8522863,45.2459183 C37.5304211,43.5112453 36.3776245,40.3600151 36.3776245,40.3600151 C35.4026395,42.3977943 33.8674888,43.4166686 31.7721264,43.4166686 C30.0787314,43.4166686 28.7488376,42.7798722 27.7824051,41.5062602 C26.8159727,40.2326482 26.3327637,38.48036 26.3327637,36.2493432 C26.3327637,33.8250886 26.8779774,31.8927408 27.9684211,30.4522417 C29.0588648,29.0117426 30.5234584,28.2915039 32.3622459,28.2915039 C33.8332759,28.2915039 35.171722,28.8887751 36.3776245,30.0833353 L36.8522859,28.6208847 L40.1877441,28.6208847 L40.1877441,45.2459176 C40.1877441,45.696826 45,55 38,55 Z M33.8908691,35.0541992 L33.8908691,32.1000977 C33.0200966,31.1235303 32.0883025,30.6352539 31.095459,30.6352539 C30.2084103,30.6352539 29.5004095,31.0624957 28.9714355,31.9169922 C28.4424615,32.7714886 28.1779785,33.9189381 28.1779785,35.359375 C28.1779785,38.1019017 29.056876,39.4731445 30.8146973,39.4731445 C31.8889214,39.4731445 32.9143018,39.3753324 33.8908691,38 L33.8908691,35.0541992 Z M49.9428711,42.3051758 C47.8513893,42.3051758 46.1892151,41.672451 44.9562988,40.4069824 C43.7233825,39.1415139 43.1069336,37.43865 43.1069336,35.2983398 C43.1069336,33.1336155 43.7274515,31.4246482 44.9685059,30.1713867 C46.2095602,28.9181252 47.8961482,28.2915039 50.0283203,28.2915039 C52.1686305,28.2915039 53.8592874,28.9181252 55.1003418,30.1713867 C56.3413962,31.4246482 56.9619141,33.1254775 56.9619141,35.2739258 C56.9619141,37.4712024 56.3393617,39.1923766 55.0942383,40.4375 C53.8491149,41.6826234 52.1320096,42.3051758 49.9428711,42.3051758 L49.9428711,42.3051758 Z M51.8908691,35.0314797 C51.8908691,33.6758753 51.636337,32.6042823 51.1272649,31.8166686 C50.6181929,31.0290549 49.9187008,30.6352539 49.0287675,30.6352539 C48.146376,30.6352539 47.4506547,31.0290549 46.9415827,31.8166686 C46.4325107,32.6042823 46.1779785,33.6834484 46.1779785,35.0541992 C46.1779785,36.4098036 46.4306253,37.4851832 46.9359264,38.2803701 C47.4412275,39.075557 48.1312925,39.4731445 49.0061422,39.4731445 C50.9293031,39.4731445 51.8908691,37.9926044 51.8908691,35.0314797 Z" id="qo" fill="#FFCA71" sketch:type="MSShapeGroup"></path>
    </g>
</svg>